<svg width="24" height="24" viewBox="0 0 24 24" fill="none" xmlns="http://www.w3.org/2000/svg">
<path fill-rule="evenodd" clip-rule="evenodd" d="M11.425 3.75749C10.7805 3.14417 9.85501 2.83918 8.64839 3.13529C8.35174 2.73078 7.95377 2.41156 7.49453 2.20976C6.75233 1.89088 5.8207 1.89755 4.77017 2.50142C3.67132 3.01418 3.14189 3.76804 2.99578 4.55913C2.8969 5.09689 2.98301 5.60688 3.12467 6.00909C2.19247 6.82462 1.91193 7.7557 2.04581 8.63289C2.16192 9.39176 2.57635 10.0401 2.98301 10.4801C2.91176 10.786 2.90457 11.1034 2.96189 11.4123C3.13411 11.29 3.21578 11.2334 3.40299 11.1573C3.70854 11.0328 3.95853 11.0184 4.2363 11.0184C5.11127 11.0184 5.61737 11.12 6.45179 11.3517C6.92466 11.4781 7.37876 11.6663 7.8023 11.9117L7.96007 11.8439C8.15843 11.7579 8.37756 11.7317 8.59061 11.7684L10.5422 12.1056C10.467 11.7028 10.4237 11.2947 10.4128 10.885C10.3918 9.91089 10.6414 8.95 11.134 8.10928C11.6265 7.26855 12.3426 6.58095 13.2027 6.12297C12.978 5.88803 12.7056 5.70391 12.4038 5.58299C12.276 4.99801 11.9811 4.28692 11.425 3.75749ZM5.96625 4.37803C6.03165 4.34566 6.10279 4.32649 6.1756 4.32162C6.24841 4.31674 6.32146 4.32627 6.39059 4.34964C6.45972 4.37301 6.52357 4.40977 6.57849 4.45782C6.63341 4.50587 6.67832 4.56427 6.71067 4.62968L7.1501 5.51855L8.04618 4.55913C8.14797 4.45726 8.28534 4.39889 8.42933 4.39634C8.57331 4.39378 8.71267 4.44724 8.818 4.54545C8.92334 4.64365 8.98642 4.77892 8.99395 4.92273C9.00149 5.06654 8.95288 5.20766 8.85838 5.31633L7.67675 6.58185L8.12285 7.48237L8.86227 6.81017C8.97196 6.7163 9.11388 6.66882 9.25797 6.67778C9.40207 6.68674 9.53701 6.75145 9.63422 6.85819C9.73143 6.96493 9.78327 7.10532 9.77875 7.24963C9.77423 7.39393 9.71372 7.53081 9.61002 7.63126L8.63505 8.51734L9.2217 9.70286C9.28589 9.83482 9.29526 9.98681 9.24777 10.1257C9.20028 10.2645 9.09979 10.3789 8.96824 10.4439C8.83668 10.5089 8.68475 10.5192 8.54562 10.4726C8.40648 10.426 8.29145 10.3262 8.22562 10.1951L7.61731 8.96566L6.52623 9.18621C6.38504 9.20807 6.24086 9.17469 6.12364 9.09301C6.00642 9.01133 5.92517 8.88763 5.89678 8.74761C5.86839 8.60758 5.89504 8.46201 5.97118 8.34112C6.04733 8.22023 6.16713 8.13333 6.30568 8.09847L7.10788 7.93625L6.66567 7.0435L4.97739 7.29738C4.90388 7.31154 4.82827 7.31071 4.7551 7.29492C4.68193 7.27913 4.6127 7.24872 4.55157 7.20551C4.49045 7.1623 4.43869 7.10718 4.3994 7.04346C4.36011 6.97974 4.3341 6.90874 4.32294 6.83472C4.31178 6.7607 4.31569 6.68519 4.33444 6.61272C4.35319 6.54025 4.38639 6.47232 4.43206 6.413C4.47772 6.35368 4.5349 6.30421 4.60016 6.26754C4.66543 6.23088 4.73742 6.20778 4.81184 6.19964L6.14846 5.99853L5.71459 5.12134C5.64956 4.98937 5.63954 4.83699 5.68672 4.69764C5.7339 4.5583 5.83443 4.44335 5.96625 4.37803Z" fill="currentColor"/>
<path fill-rule="evenodd" clip-rule="evenodd" d="M12.0755 12.3861L11.7933 12.3311C11.6927 12.0569 11.6194 11.7735 11.5744 11.485L11.5661 11.4517C11.5094 11.22 11.4717 11.0161 11.4683 10.8628C11.4562 10.2682 11.5699 9.67775 11.8019 9.13014C12.0338 8.58252 12.3789 8.09009 12.8144 7.6851C12.8485 7.65288 12.8831 7.62492 12.9183 7.60122C14.0377 6.60125 15.6032 6.42737 16.8154 7.41956C16.8015 6.05738 17.3542 4.72631 18.6931 3.95411L19.1625 4.76631C18.0287 5.42017 17.607 6.64403 17.7948 7.95232C20.3808 7.10235 22.3935 9.54838 21.638 12.3644C21.4043 13.2286 20.9103 14 20.223 14.5738L19.8842 14.4555C18.8803 14.1071 17.6165 13.6855 16.6065 13.4072C15.6243 13.136 14.3605 12.8555 13.3494 12.6444C12.9253 12.5558 12.5006 12.4696 12.0755 12.3861ZM19.5297 9.77004C19.6743 9.74199 19.824 9.77245 19.9461 9.85474C20.0682 9.93703 20.1526 10.0644 20.1808 10.2089C20.2825 10.7151 20.2428 11.2394 20.0661 11.7245C19.8894 12.2096 19.5826 12.6366 19.1792 12.9588C19.0649 13.0517 18.9183 13.0953 18.7718 13.08C18.6254 13.0648 18.4909 12.9921 18.3981 12.8777C18.3053 12.7634 18.2617 12.6169 18.2769 12.4704C18.2921 12.3239 18.3649 12.1895 18.4792 12.0966C18.7259 11.9009 18.9135 11.6407 19.0214 11.3449C19.1292 11.049 19.1531 10.7291 19.0903 10.4206C19.0626 10.2762 19.0932 10.1267 19.1755 10.0049C19.2577 9.88309 19.3849 9.79883 19.5292 9.7706M4.35354 21.9986C6.02015 21.9058 7.05123 21.4319 7.68677 20.738C7.93954 21.0769 8.36341 21.2736 8.82229 21.2014C9.39725 21.1106 9.97098 21.0123 10.5433 20.9064V18.3037H11.7822V20.6669C13.3488 20.3503 15.2543 19.9153 17.3548 19.3303V17.6854H18.5937V18.9742C19.4397 18.7225 20.3114 18.4476 21.1997 18.1476C21.4313 18.0769 21.634 17.9338 21.7781 17.7392C21.9222 17.5446 22 17.3089 22 17.0668C22 16.8246 21.9222 16.5889 21.7781 16.3943C21.634 16.1998 21.4313 16.0566 21.1997 15.986C19.1197 15.2853 17.0104 14.6749 14.8777 14.1566V17.6854H13.6394V13.8649C11.5894 13.3994 9.9117 13.1038 8.82229 12.9316C8.60867 12.8972 8.38968 12.9222 8.18937 13.0041C7.98906 13.0859 7.81516 13.2213 7.68677 13.3955C7.05123 12.7011 6.02015 12.2272 4.35354 12.1344C4.27264 12.1306 4.19182 12.1434 4.11611 12.1722C4.04039 12.2009 3.97139 12.2449 3.9134 12.3014C3.85541 12.358 3.80967 12.4258 3.77902 12.5008C3.74836 12.5757 3.73346 12.6562 3.73522 12.7372C3.74967 13.7444 3.81133 14.5443 4.02133 15.1682C3.34079 15.426 2.69915 15.946 2.1125 16.7287C1.9625 16.9287 1.9625 17.2048 2.1125 17.4048C2.69415 18.1809 3.33079 18.6992 4.00466 18.9586C3.82578 19.5642 3.75467 20.3586 3.73634 21.3941C3.73435 21.4751 3.74904 21.5556 3.77949 21.6306C3.80993 21.7057 3.85549 21.7736 3.91332 21.8303C3.97116 21.887 4.04003 21.9312 4.11567 21.9601C4.1913 21.9891 4.27264 22.0022 4.35354 21.9986ZM5.57461 15.9032L4.45965 16.3254C4.15077 16.4421 3.80411 16.6704 3.43746 17.0665C3.80022 17.4587 4.14354 17.6865 4.44965 17.8042L5.51517 18.2148L5.19185 19.3086C5.09685 19.6308 5.03296 20.0719 4.99907 20.6908C6.19348 20.5075 6.69791 20.0647 6.95846 19.662C7.33345 19.0825 7.44622 18.237 7.44622 17.0665C7.44622 15.896 7.33345 15.051 6.95846 14.4716C6.69735 14.0682 6.19181 13.6255 4.99574 13.4416C5.02741 14.0416 5.09018 14.4627 5.19462 14.7743L5.57461 15.9032Z" fill="currentColor"/>
</svg>
