<svg width="24" height="24" viewBox="0 0 24 24" fill="none" xmlns="http://www.w3.org/2000/svg">
<path fill-rule="evenodd" clip-rule="evenodd" d="M16.4004 2.50002C17.1401 2.4902 17.8396 2.99026 17.9697 3.70998C18.0297 4.01995 17.9899 4.32011 17.8799 4.5801C17.7399 4.9201 17.6296 5.31049 17.5596 5.73049L19.8301 8.00002H21C21.5499 8.00002 21.9999 8.45011 22 9.00002V14.2403C22 14.6702 21.7302 15.0504 21.3203 15.1904L19.1797 15.9102L17.9297 20.0703C17.6696 20.9202 16.8897 21.5 16.0098 21.5H14C13.6379 21.5 13.2987 21.4006 13.0049 21.2305C13.6365 20.1315 14 18.8585 14 17.5C13.9999 13.3579 10.6421 10 6.5 10C4.86247 10 3.3486 10.5264 2.11523 11.417C2.04284 10.8742 2 10.3919 2 10C2.00011 6.96011 4.46007 4.50002 7.5 4.50002H12.5C13.4 3.31009 14.8104 2.53002 16.4004 2.50002ZM16 9.50002C15.4501 9.50002 15.0001 9.95011 15 10.5C15 11.05 15.45 11.5 16 11.5C16.55 11.5 17 11.05 17 10.5C16.9999 9.95011 16.5499 9.50002 16 9.50002ZM9 7.50002C8.45007 7.50002 8.00011 7.95011 8 8.50002C8 9.05002 8.45 9.50002 9 9.50002H12C12.55 9.50002 13 9.05002 13 8.50002C12.9999 7.95011 12.5499 7.50002 12 7.50002H9Z" fill="currentColor"/>
<path d="M12 17.5C12 14.4624 9.53757 12 6.5 12C3.46243 12 1 14.4624 1 17.5C1 20.5376 3.46243 23 6.5 23C9.53757 23 12 20.5376 12 17.5ZM6.49778 14.3765C7.39698 14.3765 8.23565 14.7592 8.82415 15.4156C8.91033 15.5117 8.99052 15.6131 9.06422 15.7191C9.22182 15.9459 9.16575 16.2575 8.939 16.4151C8.71225 16.5727 8.40067 16.5166 8.24307 16.2899C8.1929 16.2177 8.13828 16.1486 8.07957 16.0831C7.67881 15.6361 7.10981 15.3765 6.49778 15.3765C5.69424 15.3765 4.98349 15.8262 4.62343 16.5001H5.50129C5.77743 16.5001 6.00129 16.7239 6.00129 17.0001C6.00129 17.2762 5.77743 17.5001 5.50129 17.5001H3.96561C3.93693 17.5026 3.90772 17.5026 3.87825 17.5001H3.5C3.22386 17.5001 3 17.2762 3 17.0001V15.0001C3 14.7239 3.22386 14.5001 3.5 14.5001C3.77614 14.5001 4 14.7239 4 15.0001V15.6235C4.57371 14.8613 5.48554 14.3765 6.49778 14.3765ZM9 19.3706C8.42654 20.1363 7.51259 20.6236 6.49778 20.6236C5.59599 20.6236 4.75514 20.2387 4.1665 19.579C4.08465 19.4873 4.00824 19.3908 3.93771 19.2901C3.7793 19.0639 3.83425 18.7521 4.06045 18.5937C4.28664 18.4353 4.59842 18.4903 4.75682 18.7165C4.80484 18.785 4.85688 18.8507 4.91264 18.9132C5.3135 19.3625 5.88399 19.6236 6.49778 19.6236C7.30129 19.6236 8.01208 19.1739 8.37215 18.5H7.5C7.22386 18.5 7 18.2761 7 18C7 17.7239 7.22386 17.5 7.5 17.5H9.5C9.77614 17.5 10 17.7239 10 18V20C10 20.2761 9.77614 20.5 9.5 20.5C9.22386 20.5 9 20.2761 9 20V19.3706Z" fill="currentColor"/>
</svg>
