<svg width="24" height="24" viewBox="0 0 24 24" fill="none" xmlns="http://www.w3.org/2000/svg">
<path d="M18.6152 11.3076C18.6152 7.27172 15.3435 4 11.3076 4C7.27176 4.00007 4.00007 7.27176 4 11.3076C4 15.3435 7.27172 18.6152 11.3076 18.6152C13.2983 18.6152 15.102 17.8183 16.4199 16.5273C16.4363 16.5083 16.4536 16.4897 16.4717 16.4717C16.4914 16.452 16.5113 16.4328 16.5322 16.415C17.8204 15.0975 18.6152 13.2958 18.6152 11.3076ZM12.3848 9.23047C12.3849 9.21618 12.3941 9.15838 12.2402 9.06055C12.0646 8.94887 11.7451 8.8457 11.3076 8.8457C11.0096 8.8457 10.782 8.84711 10.585 8.86426C10.4035 8.88005 10.3106 8.90643 10.2676 8.92383C10.2552 8.95956 10.2305 9.05 10.2305 9.23047C10.2305 9.35451 10.2703 9.48748 10.5195 9.69531C10.8021 9.93079 11.2074 10.1393 11.7549 10.4131C12.2458 10.6585 12.8797 10.9693 13.376 11.3828C13.9052 11.8238 14.3848 12.4704 14.3848 13.3848C14.3848 13.8344 14.3099 14.2724 14.1016 14.6592C13.8824 15.066 13.5569 15.3383 13.1953 15.5049C12.8956 15.6429 12.583 15.7022 12.3076 15.7324V16.8467C12.3074 17.3988 11.8597 17.8467 11.3076 17.8467C10.7555 17.8467 10.3079 17.3987 10.3076 16.8467V15.6807C9.97027 15.6147 9.63844 15.5056 9.33887 15.333C8.66339 14.9439 8.2305 14.2728 8.23047 13.3848C8.23047 12.8326 8.6783 12.3849 9.23047 12.3848C9.78275 12.3848 10.2305 12.8325 10.2305 13.3848C10.2305 13.4908 10.253 13.5273 10.2559 13.5322C10.2595 13.5384 10.2747 13.5637 10.3369 13.5996C10.4898 13.6877 10.8026 13.7695 11.3076 13.7695C11.6057 13.7695 11.8333 13.7681 12.0303 13.751C12.2106 13.7353 12.3033 13.7088 12.3467 13.6914C12.3591 13.6558 12.3848 13.5656 12.3848 13.3848C12.3848 13.2607 12.3451 13.1278 12.0957 12.9199C11.8131 12.6844 11.4079 12.4759 10.8604 12.2021C10.3695 11.9567 9.7355 11.646 9.23926 11.2324C8.71009 10.7914 8.23047 10.1448 8.23047 9.23047C8.2305 8.7809 8.30528 8.34276 8.51367 7.95605C8.73288 7.5493 9.05835 7.27795 9.41992 7.11133C9.71975 6.97317 10.0321 6.913 10.3076 6.88281V5.76953C10.3076 5.21726 10.7553 4.76955 11.3076 4.76953C11.8599 4.76953 12.3076 5.21725 12.3076 5.76953V6.95996C12.668 7.04532 13.0106 7.18043 13.3135 7.37305C13.9096 7.75212 14.3846 8.38589 14.3848 9.23047C14.3848 9.78269 13.937 10.2304 13.3848 10.2305C12.8325 10.2305 12.3848 9.78275 12.3848 9.23047ZM20.6152 11.3076C20.6152 13.5176 19.8433 15.5462 18.5566 17.1426L21.707 20.293C22.0975 20.6835 22.0975 21.3165 21.707 21.707C21.3165 22.0976 20.6835 22.0976 20.293 21.707L17.1426 18.5566C15.5462 19.8433 13.5176 20.6152 11.3076 20.6152C6.16715 20.6152 2 16.4481 2 11.3076C2.00007 6.16719 6.16719 2.00007 11.3076 2C16.4481 2 20.6152 6.16715 20.6152 11.3076Z" fill="currentColor"/>
</svg>
