<svg width="35" height="35" viewBox="0 0 35 35" fill="none" xmlns="http://www.w3.org/2000/svg">
<path d="M17.2828 28.7696C18.076 28.7698 18.7193 29.4129 18.7193 30.2061C18.7193 30.9993 18.076 31.6424 17.2828 31.6426H9.30212C8.50876 31.6426 7.86562 30.9995 7.86562 30.2061C7.86562 29.4127 8.50876 28.7696 9.30212 28.7696H17.2828ZM21.7705 4.48103C22.2504 2.2895 25.3705 2.27719 25.8695 4.4628L25.92 4.68584L25.9214 4.68865C26.1372 5.63654 26.629 6.49954 27.3341 7.16885C28.0389 7.83782 28.9256 8.28333 29.883 8.44963L29.8872 8.45104C32.1746 8.85344 32.1747 12.1351 29.8872 12.5375H29.8844C28.927 12.704 28.0402 13.1505 27.3355 13.8197C26.6307 14.489 26.1385 15.3521 25.9228 16.2999V16.3027L25.8709 16.5285L25.8695 16.5271C25.3694 18.7112 22.2517 18.6985 21.7719 16.5075L21.7691 16.4906L21.7326 16.3153L21.6414 15.9632C21.3984 15.1505 20.9484 14.4118 20.3326 13.8225C19.7179 13.2344 18.9615 12.8188 18.1385 12.6118L17.7822 12.5361C15.4951 12.1385 15.4947 8.85541 17.7808 8.45665L18.1371 8.3809C18.9589 8.17335 19.7147 7.75515 20.3298 7.16605C21.0327 6.49272 21.5195 5.62537 21.7284 4.67462L21.7691 4.48664L21.7705 4.48103ZM18.7193 24.282C18.7193 24.9272 18.4628 25.5468 18.0067 26.0032C17.5503 26.4596 16.9307 26.7171 16.2854 26.7173H10.2995C9.65397 26.7173 9.03473 26.4597 8.57826 26.0032C8.1219 25.5468 7.86562 24.9274 7.86562 24.282V22.1314C5.81835 20.8752 4.25818 18.9455 3.46775 16.6576C2.57792 14.0816 2.73264 11.2588 3.89982 8.79613C5.06716 6.33333 7.15429 4.42572 9.71174 3.48362C12.2691 2.54166 15.0943 2.64022 17.5802 3.75717C18.3034 4.08238 18.626 4.93179 18.3013 5.6552C17.9761 6.37886 17.1255 6.7028 16.4018 6.37766C14.6018 5.569 12.5567 5.49782 10.7049 6.17986C8.853 6.86206 7.34178 8.24301 6.49646 10.0264C5.65114 11.8098 5.53923 13.8536 6.18363 15.7191C6.82804 17.5845 8.17741 19.1233 9.94321 20.0047C10.4303 20.2479 10.7386 20.7453 10.7386 21.2897V23.8443H15.8463V21.2897C15.8463 20.7429 16.1569 20.2439 16.6473 20.0019C17.5351 19.5639 18.3215 18.9608 18.9662 18.2259C19.4894 17.6296 20.3969 17.5695 20.9933 18.0927C21.5897 18.6159 21.6483 19.5234 21.1252 20.1198C20.4308 20.9113 19.6187 21.5878 18.7193 22.1342V24.282Z" fill="currentColor"/>
</svg>
