<svg width="24" height="24" viewBox="0 0 24 24" fill="none" xmlns="http://www.w3.org/2000/svg">
<path d="M9 20V19H7C6.71667 19 6.47934 18.904 6.288 18.712C6.09667 18.52 6.00067 18.2827 6 18C5.99934 17.7173 6.09534 17.48 6.288 17.288C6.48067 17.096 6.718 17 7 17H8V7H7C6.71667 7 6.47934 6.904 6.288 6.712C6.09667 6.52 6.00067 6.28267 6 6C5.99934 5.71734 6.09534 5.48 6.288 5.288C6.48067 5.096 6.718 5 7 5H9V4C9 3.71667 9.096 3.47934 9.288 3.288C9.48 3.09667 9.71734 3.00067 10 3C10.2827 2.99934 10.5203 3.09534 10.713 3.288C10.9057 3.48067 11.0013 3.718 11 4V5H13V4C13 3.71667 13.096 3.47934 13.288 3.288C13.48 3.09667 13.7173 3.00067 14 3C14.2827 2.99934 14.5203 3.09534 14.713 3.288C14.9057 3.48067 15.0013 3.718 15 4V5.125C15.8667 5.35834 16.5833 5.82934 17.15 6.538C17.7167 7.24667 18 8.06734 18 9C18 9.48334 17.9167 9.946 17.75 10.388C17.5833 10.83 17.35 11.2257 17.05 11.575C17.6333 11.925 18.1043 12.4 18.463 13C18.8217 13.6 19.0007 14.2667 19 15C19 16.1 18.6083 17.0417 17.825 17.825C17.0417 18.6083 16.1 19 15 19V20C15 20.2833 14.9043 20.521 14.713 20.713C14.5217 20.905 14.284 21.0007 14 21C13.716 20.9993 13.4787 20.9033 13.288 20.712C13.0973 20.5207 13.0013 20.2833 13 20V19H11V20C11 20.2833 10.904 20.521 10.712 20.713C10.52 20.905 10.2827 21.0007 10 21C9.71734 20.9993 9.48 20.9033 9.288 20.712C9.096 20.5207 9 20.2833 9 20ZM10 11H14C14.55 11 15.021 10.8043 15.413 10.413C15.805 10.0217 16.0007 9.55067 16 9C15.9993 8.44934 15.8037 7.97867 15.413 7.588C15.0223 7.19734 14.5513 7.00134 14 7H10V11ZM10 17H15C15.55 17 16.021 16.8043 16.413 16.413C16.805 16.0217 17.0007 15.5507 17 15C16.9993 14.4493 16.8037 13.9787 16.413 13.588C16.0223 13.1973 15.5513 13.0013 15 13H10V17Z" fill="currentColor"/>
</svg>
