<svg width="24" height="24" viewBox="0 0 24 24" fill="none" xmlns="http://www.w3.org/2000/svg">
<path d="M20.953 10.8281C21.6772 10.8281 21.9796 9.89764 21.3913 9.46874L12.4405 2.9578C12.3127 2.86415 12.1584 2.81366 11.9999 2.81366C11.8414 2.81366 11.6871 2.86415 11.5593 2.9578L2.60849 9.46874C2.02021 9.8953 2.32256 10.8281 3.04912 10.8281H4.4999V19.5937H2.8124C2.70928 19.5937 2.6249 19.6781 2.6249 19.7812V21C2.6249 21.1031 2.70928 21.1875 2.8124 21.1875H21.1874C21.2905 21.1875 21.3749 21.1031 21.3749 21V19.7812C21.3749 19.6781 21.2905 19.5937 21.1874 19.5937H19.4999V10.8281H20.953ZM8.92959 19.5937H6.1874V10.8281H8.92959V19.5937ZM13.3593 19.5937H10.6171V10.8281H13.3593V19.5937ZM17.8124 19.5937H15.0468V10.8281H17.8124V19.5937Z" fill="currentColor"/>
</svg>
