<svg width="24" height="24" viewBox="0 0 24 24" fill="none" xmlns="http://www.w3.org/2000/svg">
<path d="M9.69538 18.9104H6.33372C6.22062 18.9109 6.10855 18.889 6.00397 18.8459C5.89939 18.8028 5.80437 18.7395 5.7244 18.6595C5.64442 18.5795 5.58107 18.4845 5.538 18.3799C5.49493 18.2753 5.47299 18.1633 5.47344 18.0502V15.4555L5.75329 15.7561C5.80102 15.8085 5.85918 15.8503 5.92404 15.8788C5.9889 15.9074 6.05902 15.9221 6.12988 15.9219C6.25825 15.9205 6.38147 15.8713 6.47538 15.7837C6.52518 15.7377 6.56542 15.6824 6.59377 15.6208C6.62213 15.5593 6.63805 15.4927 6.64062 15.425C6.64318 15.3572 6.63235 15.2897 6.60874 15.2261C6.58512 15.1626 6.5492 15.1043 6.50302 15.0547L5.32834 13.7971C5.28044 13.7461 5.22265 13.7054 5.1585 13.6775C5.09434 13.6496 5.02517 13.635 4.9552 13.6347C4.8845 13.6356 4.8147 13.6508 4.74999 13.6792C4.68528 13.7077 4.62699 13.749 4.57862 13.8006L3.40394 15.0651C3.35056 15.1132 3.30783 15.1719 3.2785 15.2374C3.24918 15.303 3.2339 15.374 3.23365 15.4458C3.2334 15.5177 3.24818 15.5888 3.27705 15.6545C3.30592 15.7203 3.34824 15.7793 3.40128 15.8277C3.45432 15.8762 3.51692 15.913 3.58503 15.9358C3.65315 15.9586 3.72529 15.9669 3.7968 15.9601C3.86832 15.9534 3.93763 15.9317 4.00028 15.8966C4.06293 15.8615 4.11753 15.8136 4.16057 15.7561L4.44042 15.4555V18.0467C4.43996 18.2958 4.48857 18.5425 4.58348 18.7728C4.67838 19.0031 4.81771 19.2125 4.99352 19.3889C5.16933 19.5654 5.37818 19.7055 5.60813 19.8012C5.83808 19.897 6.08464 19.9465 6.33372 19.9469H9.69538C9.83283 19.9469 9.96464 19.8923 10.0618 19.7951C10.159 19.6979 10.2136 19.5661 10.2136 19.4287C10.2136 19.2912 10.159 19.1594 10.0618 19.0622C9.96464 18.965 9.83283 18.9104 9.69538 18.9104ZM14.3043 5.09068H17.6659C17.779 5.09022 17.8911 5.11216 17.9957 5.15524C18.1003 5.19831 18.1953 5.26166 18.2753 5.34163C18.3552 5.42161 18.4186 5.51663 18.4617 5.62121C18.5047 5.72579 18.5267 5.83786 18.5262 5.95096V8.54562L18.2464 8.24504C18.1562 8.1451 18.0305 8.08444 17.8962 8.07604C17.7619 8.06765 17.6296 8.11219 17.5277 8.20013C17.4779 8.2461 17.4377 8.30146 17.4093 8.36303C17.381 8.42459 17.3651 8.49115 17.3625 8.55888C17.3599 8.62662 17.3708 8.69419 17.3944 8.75772C17.418 8.82126 17.4539 8.87951 17.5001 8.92912L18.6851 10.2005C18.7214 10.2371 18.7634 10.2674 18.8095 10.2904L18.8406 10.2316V10.3076C18.8856 10.327 18.9334 10.3387 18.9823 10.3422H19.0341C19.1122 10.3415 19.1891 10.3226 19.2587 10.2869C19.3156 10.2596 19.3672 10.2222 19.4107 10.1764L20.5854 8.91185C20.6542 8.83855 20.7001 8.7467 20.7173 8.64763C20.7345 8.54856 20.7223 8.44662 20.6823 8.35439C20.6422 8.26216 20.576 8.18367 20.4919 8.12863C20.4077 8.07359 20.3093 8.04439 20.2088 8.04466C20.1379 8.04449 20.0678 8.05917 20.0029 8.08773C19.9381 8.11629 19.8799 8.15811 19.8322 8.21049L19.5489 8.51107V5.91987C19.5416 5.42433 19.3404 4.95137 18.9884 4.60255C18.6363 4.25373 18.1615 4.05686 17.6659 4.0542H14.3043C14.1668 4.0542 14.035 4.1088 13.9378 4.20599C13.8406 4.30318 13.786 4.43499 13.786 4.57244C13.786 4.70989 13.8406 4.8417 13.9378 4.93889C14.035 5.03608 14.1668 5.09068 14.3043 5.09068Z" fill="currentColor"/>
<path d="M4.04028 18.0464V16.313C3.97359 16.3355 3.90468 16.3513 3.83423 16.3579C3.70722 16.3699 3.57923 16.3554 3.45825 16.3149C3.3372 16.2744 3.22536 16.2096 3.1311 16.1235C3.03686 16.0375 2.9617 15.9318 2.9104 15.8149C2.85927 15.6983 2.83286 15.5722 2.83325 15.4448C2.8337 15.3172 2.86121 15.1903 2.91333 15.0737C2.96069 14.968 3.02862 14.8731 3.11157 14.7925L4.2854 13.5288L4.28735 13.5269C4.37252 13.4361 4.47523 13.3631 4.58911 13.313C4.70301 13.2629 4.82601 13.2364 4.95044 13.2349H4.95728C5.08136 13.2354 5.20384 13.2616 5.31763 13.311C5.40308 13.3482 5.48287 13.3976 5.55298 13.4585L5.62036 13.5229L6.79517 14.7817C6.87715 14.8698 6.94168 14.9736 6.98364 15.0864C7.02558 15.1993 7.04482 15.3196 7.04028 15.4399C7.03572 15.5603 7.00766 15.6792 6.95728 15.7886C6.90714 15.8973 6.83514 15.9943 6.74731 16.0757C6.58046 16.2312 6.36209 16.3193 6.13403 16.3218H6.1311C6.0436 16.322 5.95686 16.3082 5.87329 16.2837V18.0522C5.87311 18.1124 5.88457 18.1724 5.90747 18.228C5.9304 18.2836 5.96458 18.3339 6.00708 18.3765C6.04972 18.4191 6.10074 18.4531 6.15649 18.4761C6.2122 18.499 6.27204 18.5105 6.33228 18.5103H9.69556C9.93902 18.5103 10.1728 18.6076 10.345 18.7798C10.5168 18.9518 10.6134 19.185 10.6135 19.4282C10.6135 19.6716 10.517 19.9055 10.345 20.0776C10.1728 20.2498 9.93902 20.3471 9.69556 20.3472H6.33325C6.03164 20.3466 5.73279 20.2863 5.45435 20.1704C5.17596 20.0545 4.92306 19.885 4.71021 19.6714C4.49737 19.4578 4.32902 19.2041 4.21411 18.9253C4.12787 18.716 4.07271 18.4955 4.05103 18.271L4.04028 18.0464ZM17.6682 3.65381C18.2685 3.65707 18.8434 3.89636 19.2698 4.31885C19.696 4.74124 19.9396 5.31358 19.9485 5.91357V7.68213C20.0323 7.65719 20.1195 7.64505 20.2073 7.64502C20.386 7.64456 20.5616 7.69564 20.7112 7.79346C20.8606 7.89122 20.9779 8.03104 21.0491 8.19482C21.1202 8.35872 21.1422 8.54026 21.1116 8.71631C21.0809 8.89231 20.9995 9.05581 20.8772 9.18604L20.8762 9.18506L19.7034 10.4487L19.7004 10.4517C19.6258 10.5302 19.5378 10.5942 19.4407 10.6421C19.4381 10.6434 19.4355 10.6447 19.4329 10.646L19.4309 10.6479L19.4299 10.647C19.3078 10.7076 19.1739 10.7405 19.0374 10.7417L19.0344 10.7427H19.0227L18.9807 10.8218L18.6868 10.6763L18.6829 10.6753L18.4407 10.5708V10.5151C18.4279 10.5037 18.4137 10.4941 18.4016 10.4819L18.3928 10.4731L17.2073 9.20166C17.1252 9.1135 17.0617 9.00986 17.0198 8.89697C16.9778 8.78406 16.9586 8.66381 16.9631 8.54346C16.9677 8.42321 16.9958 8.30511 17.0461 8.1958C17.0965 8.0864 17.1676 7.98746 17.2561 7.90576L17.2659 7.89697C17.4469 7.74096 17.6826 7.66234 17.9211 7.67725C17.9912 7.68163 18.06 7.69357 18.1262 7.71338V5.94971C18.1265 5.88956 18.1149 5.82956 18.092 5.77393C18.0691 5.71818 18.0351 5.66715 17.9924 5.62451C17.9498 5.58187 17.8988 5.54787 17.843 5.5249C17.7874 5.50204 17.7274 5.49048 17.6672 5.49072H14.304C14.0605 5.49064 13.8267 5.3943 13.6545 5.22217C13.4824 5.05004 13.3861 4.81617 13.386 4.57275C13.386 4.32937 13.4825 4.09551 13.6545 3.92334C13.8267 3.75121 14.0605 3.65389 14.304 3.65381H17.6682ZM4.84009 18.0474C4.83973 18.2439 4.87848 18.4389 4.95337 18.6206C5.02826 18.8023 5.13792 18.9677 5.27661 19.1069C5.41534 19.2462 5.58052 19.3566 5.76196 19.4321C5.94331 19.5076 6.1378 19.547 6.33423 19.5474H9.69556C9.72677 19.5473 9.75645 19.5342 9.77856 19.5122C9.80074 19.49 9.81372 19.4596 9.81372 19.4282C9.8136 19.397 9.80063 19.3673 9.77856 19.3452C9.75645 19.3232 9.72679 19.3101 9.69556 19.3101H6.33325C6.16806 19.3105 6.00456 19.2782 5.85181 19.2153C5.69841 19.1522 5.55896 19.0592 5.44165 18.9419C5.32453 18.8247 5.23136 18.6859 5.16821 18.5327C5.10503 18.3793 5.07282 18.2142 5.07349 18.0483V14.439L6.04614 15.4839L6.04907 15.4868C6.05919 15.4979 6.07148 15.5071 6.08521 15.5132C6.0984 15.519 6.11279 15.5208 6.1272 15.521C6.15524 15.5203 6.18185 15.5099 6.20239 15.4907L6.20435 15.4897C6.21536 15.4795 6.22443 15.4673 6.23071 15.4536C6.23704 15.4399 6.23991 15.4248 6.24048 15.4097C6.24103 15.3947 6.23885 15.3798 6.23364 15.3657C6.22841 15.3516 6.22042 15.3387 6.21021 15.3276L5.03638 14.0698C5.02584 14.0587 5.01331 14.0506 4.99927 14.0444C4.9858 14.0386 4.97096 14.0351 4.9563 14.0347C4.9408 14.0353 4.92561 14.0392 4.91138 14.0454C4.89595 14.0522 4.88189 14.0624 4.87036 14.0747L4.86938 14.0737L3.69653 15.3374L3.68481 15.3501L3.67114 15.3628C3.65947 15.3734 3.65025 15.3865 3.6438 15.4009C3.63733 15.4153 3.63415 15.4309 3.63403 15.4468C3.63398 15.4628 3.63736 15.479 3.6438 15.4937C3.65024 15.5083 3.65934 15.5219 3.67114 15.5327C3.68292 15.5434 3.69707 15.5511 3.71216 15.5562C3.72727 15.5612 3.74317 15.5635 3.75903 15.562C3.77498 15.5605 3.79096 15.5552 3.80493 15.5474C3.81872 15.5396 3.83059 15.5288 3.84009 15.5161L3.85278 15.4995L3.86743 15.4839L4.84009 14.439V18.0474ZM14.1858 4.57275C14.1859 4.604 14.1988 4.63366 14.2209 4.65576C14.243 4.67786 14.2727 4.69083 14.304 4.69092H17.6663C17.8314 4.69051 17.9949 4.72276 18.1477 4.78564C18.3011 4.84882 18.4405 4.94177 18.5579 5.05908C18.6752 5.17639 18.7681 5.31585 18.8313 5.46924C18.8942 5.62199 18.9264 5.78551 18.926 5.95068V9.56201L18.2336 8.81787L17.9534 8.51807L17.9495 8.51318C17.9294 8.49092 17.9013 8.47699 17.8713 8.4751C17.843 8.47332 17.8154 8.48289 17.7932 8.50049C17.7849 8.5094 17.7778 8.51967 17.7727 8.53076C17.7665 8.54431 17.7626 8.55884 17.762 8.57373C17.7614 8.58884 17.7645 8.60449 17.7698 8.61865C17.775 8.63267 17.783 8.64578 17.7932 8.65674L18.969 9.91846C18.9744 9.92386 18.9807 9.92872 18.9875 9.93213L18.8821 10.1421L18.9084 10.1489L18.9827 9.97607V9.94189H18.9973L18.9983 9.93994C19.001 9.94109 19.0042 9.94137 19.0071 9.94189H19.0305C19.0463 9.94176 19.0624 9.93834 19.0764 9.93115L19.0862 9.92627C19.0991 9.92008 19.1105 9.91124 19.1204 9.90088L20.2922 8.63916L20.2942 8.63818C20.3094 8.62196 20.3196 8.60146 20.3235 8.57959C20.3273 8.55767 20.3244 8.5346 20.3157 8.51416C20.3067 8.49359 20.2915 8.47565 20.2727 8.46338C20.2541 8.45125 20.2324 8.44484 20.2102 8.44482H20.2083C20.1933 8.44479 20.178 8.44761 20.1643 8.45361C20.1506 8.45966 20.1383 8.4689 20.1282 8.47998L20.1233 8.48486L19.1487 9.51904V5.92529C19.1429 5.53459 18.9848 5.16126 18.7073 4.88623C18.4644 4.64559 18.147 4.49737 17.8098 4.4624L17.6633 4.45459H14.304C14.2728 4.45467 14.243 4.46678 14.2209 4.48877C14.1988 4.51094 14.1858 4.5414 14.1858 4.57275Z" fill="currentColor"/>
<path d="M7.07324 6.47461C7.3914 6.47461 7.66602 6.76004 7.66602 7.125C7.66602 7.48996 7.3914 7.77539 7.07324 7.77539H5.44238V6.47461H7.07324Z" fill="currentColor"/>
<path d="M6.72754 4.22461C7.04557 4.22479 7.31934 4.51016 7.31934 4.875C7.31934 5.23984 7.04557 5.52521 6.72754 5.52539H5.44238V4.22461H6.72754Z" fill="currentColor"/>
<path fill-rule="evenodd" clip-rule="evenodd" d="M6 1C8.76142 1 11 3.23858 11 6C10.9999 8.76132 8.76135 11 6 11C3.23865 11 1.00012 8.76132 1 6C1 3.23858 3.23858 1 6 1ZM6.72754 2.52539C6.47466 2.52553 6.28125 2.74629 6.28125 3V3.27539H5.78906V3C5.78906 2.74626 5.5957 2.52548 5.34277 2.52539C5.08989 2.52553 4.89648 2.74629 4.89648 3V3.27539H4.30371C4.05105 3.2758 3.8584 3.49644 3.8584 3.75C3.8584 4.00356 4.05105 4.2242 4.30371 4.22461H4.55078V7.77539H4.30371C4.05105 7.77579 3.8584 7.99644 3.8584 8.25C3.8584 8.50356 4.05105 8.72421 4.30371 8.72461H4.89648V9C4.89648 9.25371 5.08989 9.47447 5.34277 9.47461C5.5957 9.47452 5.78906 9.25374 5.78906 9V8.72461H6.28125V9C6.28125 9.25371 6.47466 9.47447 6.72754 9.47461C6.98039 9.47443 7.17383 9.25369 7.17383 9V8.71875C7.95344 8.66291 8.55762 7.96546 8.55762 7.125C8.55762 6.5871 8.30686 6.10812 7.92383 5.81738C8.10528 5.5533 8.21191 5.227 8.21191 4.875C8.21191 4.16512 7.7811 3.55489 7.17383 3.35059V3C7.17383 2.74631 6.98039 2.52557 6.72754 2.52539Z" fill="currentColor"/>
<path fill-rule="evenodd" clip-rule="evenodd" d="M18 13C20.7614 13 23 15.2386 23 18C23 20.7614 20.7614 23 18 23C15.2386 23 13 20.7614 13 18C13 15.2386 15.2386 13 18 13ZM18.083 14.3008C17.696 14.3009 17.383 14.613 17.3828 15V15.1855C16.6185 15.3757 15.9836 15.8973 15.9834 16.708C15.9835 17.2027 16.1899 17.5771 16.542 17.8584C16.8894 18.1359 17.3764 18.3228 17.9395 18.458C18.4328 18.5764 18.7128 18.7192 18.8691 18.8662C19.0199 19.008 19.0634 19.1599 19.0635 19.3242C19.0634 19.4392 19.0224 19.5898 18.8877 19.7119C18.7523 19.8344 18.5089 19.9404 18.083 19.9404C17.7644 19.9404 17.5321 19.8835 17.3672 19.793C17.2041 19.7034 17.1015 19.5781 17.0439 19.4316C16.972 19.2456 16.8039 19.1006 16.5908 19.1006H16.4795C16.1427 19.1008 15.9031 19.4424 16.0303 19.7578C16.2645 20.3284 16.795 20.6646 17.3828 20.8086V21C17.383 21.387 17.696 21.7001 18.083 21.7002C18.4701 21.7002 18.783 21.3871 18.7832 21V20.8203C19.1534 20.739 19.4914 20.5886 19.7432 20.3555C20.0158 20.1028 20.1825 19.7583 20.1826 19.3203C20.1826 18.7179 19.9226 18.3088 19.5439 18.0234C19.1708 17.7424 18.6842 17.5823 18.2285 17.4639C17.7773 17.3466 17.4926 17.2304 17.3223 17.1045C17.2387 17.0427 17.1846 16.9798 17.1514 16.916C17.1184 16.8526 17.1026 16.7817 17.1025 16.7002C17.1026 16.5174 17.1864 16.3621 17.3467 16.249C17.5103 16.1339 17.7587 16.0606 18.083 16.0605C18.3552 16.0605 18.5476 16.1125 18.6816 16.1963C18.7805 16.2581 18.8523 16.3402 18.9014 16.4414L18.9434 16.5498C19.0015 16.7424 19.1664 16.9001 19.3867 16.9004H19.5068C19.8171 16.9004 20.0476 16.6127 19.9785 16.3164L19.9609 16.2578C19.7884 15.7739 19.3945 15.3748 18.7832 15.2021V15C18.783 14.613 18.4701 14.3008 18.083 14.3008Z" fill="currentColor"/>
</svg>
