<svg width="24" height="24" viewBox="0 0 24 24" fill="none" xmlns="http://www.w3.org/2000/svg">
<path d="M19.5 12.9V19.2C19.5 19.6774 19.3025 20.1352 18.9508 20.4728C18.5992 20.8104 18.1223 21 17.625 21C17.1277 21 16.6508 20.8104 16.2992 20.4728C15.9475 20.1352 15.75 19.6774 15.75 19.2V14.7H13.875V5.7C13.875 4.98392 14.1713 4.29716 14.6988 3.79081C15.2262 3.28446 15.9416 3 16.6875 3H19.5V12.9ZM6.375 12C5.87772 12 5.40081 11.8104 5.04917 11.4728C4.69754 11.1352 4.5 10.6774 4.5 10.2V3.9C4.5 3.66131 4.59877 3.43239 4.77459 3.2636C4.9504 3.09482 5.18886 3 5.4375 3C5.68614 3 5.9246 3.09482 6.10041 3.2636C6.27623 3.43239 6.375 3.66131 6.375 3.9V7.5H7.3125V3.9C7.3125 3.66131 7.41127 3.43239 7.58709 3.2636C7.7629 3.09482 8.00136 3 8.25 3C8.49864 3 8.7371 3.09482 8.91291 3.2636C9.08873 3.43239 9.1875 3.66131 9.1875 3.9V7.5H10.125V3.9C10.125 3.66131 10.2238 3.43239 10.3996 3.2636C10.5754 3.09482 10.8139 3 11.0625 3C11.3111 3 11.5496 3.09482 11.7254 3.2636C11.9012 3.43239 12 3.66131 12 3.9V10.2C12 10.6774 11.8025 11.1352 11.4508 11.4728C11.0992 11.8104 10.6223 12 10.125 12V19.2C10.125 19.6774 9.92746 20.1352 9.57583 20.4728C9.22419 20.8104 8.74728 21 8.25 21C7.75272 21 7.27581 20.8104 6.92417 20.4728C6.57254 20.1352 6.375 19.6774 6.375 19.2V12Z" fill="currentColor"/>
</svg>
