<svg width="24" height="24" viewBox="0 0 24 24" fill="none" xmlns="http://www.w3.org/2000/svg">
<path d="M12.1738 5C12.0631 5.31306 12 5.649 12 6C12 6.30441 12.0456 6.59815 12.1299 6.875H5.7998C4.75489 6.8751 3.90039 7.71881 3.90039 8.75V9.26562C4.46077 8.947 5.1065 8.75004 5.7998 8.75H13.8018C14.1689 8.91019 14.5739 9 15 9L15.0039 9.1543C15.0313 9.6953 15.2046 10.1968 15.4814 10.625H5.7998C5.00195 10.6251 4.32799 11.1126 4.04297 11.7969L14.5967 14.3467C14.8911 14.4217 15.2046 14.3466 15.4326 14.1592L18.0391 11.998L18.1543 11.9961C19.7394 11.9158 21 10.6051 21 9V16.25C21 18.3218 19.2996 19.9999 17.2002 20H5.7998C3.70039 19.9999 2 18.3218 2 16.25V8.75C2 6.67819 3.70039 5.0001 5.7998 5H12.1738Z" fill="currentColor"/>
<path d="M17 9V7H15C14.4477 7 14 6.55228 14 6C14 5.44772 14.4477 5 15 5H17V3C17 2.44772 17.4477 2 18 2C18.5523 2 19 2.44772 19 3V5H21C21.5523 5 22 5.44772 22 6C22 6.55228 21.5523 7 21 7H19V9C19 9.55228 18.5523 10 18 10C17.4477 10 17 9.55228 17 9Z" fill="currentColor"/>
</svg>
