<svg width="24" height="24" viewBox="0 0 24 24" fill="none" xmlns="http://www.w3.org/2000/svg">
<path d="M13.3281 4C13.05 4.62579 12.8898 5.30699 12.8486 6H6C4.9 6 4 6.9 4 8V8.5498C4.58998 8.20983 5.27003 8 6 8H12.8369V8.07715L12.7617 8.15039C12.2 8.69668 11.9685 9.35953 11.9893 10H6C5.16005 10 4.45042 10.5201 4.15039 11.25L15.2598 13.9697C15.5698 14.0497 15.8996 13.9695 16.1396 13.7695L16.4014 13.5488C16.8713 13.8355 17.4212 14 18.001 14C19.1132 13.9999 20.1275 13.393 20.6611 12.4619H21.4707C21.6535 12.4619 21.8302 12.4409 22 12.4043V16C22 18.21 20.21 20 18 20H6C3.79 20 2 18.21 2 16V8C2 5.79 3.79 4 6 4H13.3281Z" fill="currentColor"/>
<path d="M18.0006 12C18.5807 12 19.0553 11.5385 19.0553 10.9744H16.946C16.946 11.5385 17.4153 12 18.0006 12ZM21.1647 8.92308V6.35897C21.1647 4.78462 20.2998 3.46667 18.7917 3.11795V2.76923C18.7917 2.34359 18.4383 2 18.0006 2C17.563 2 17.2096 2.34359 17.2096 2.76923V3.11795C15.6962 3.46667 14.8366 4.77949 14.8366 6.35897V8.92308L14.1563 9.58462C13.8241 9.90769 14.0561 10.4615 14.5255 10.4615H21.4705C21.9399 10.4615 22.1772 9.90769 21.845 9.58462L21.1647 8.92308Z" fill="currentColor"/>
</svg>
