<svg width="24" height="24" viewBox="0 0 24 24" fill="none" xmlns="http://www.w3.org/2000/svg">
<path d="M2 3.62158C2 3.02451 2.48402 2.54049 3.08109 2.54049H9.5676C10.1647 2.54049 10.6487 3.02451 10.6487 3.62158V10.1081C10.6487 10.7052 10.1647 11.1892 9.5676 11.1892H3.08109C2.48402 11.1892 2 10.7052 2 10.1081V3.62158Z" fill="currentColor"/>
<path d="M2 14.4324C2 13.8354 2.48402 13.3513 3.08109 13.3513H9.5676C10.1647 13.3513 10.6487 13.8354 10.6487 14.4324V20.919C10.6487 21.516 10.1647 22 9.5676 22H3.08109C2.48402 22 2 21.516 2 20.919V14.4324Z" fill="currentColor"/>
<path d="M13.0465 7.76283C12.6178 7.34694 12.6076 6.66225 13.0237 6.23378L16.3708 2.78702C16.7911 2.35424 17.4843 2.34915 17.9108 2.77572L21.2356 6.10041C21.6578 6.5226 21.6578 7.20711 21.2356 7.62931L17.8881 10.9767C17.4704 11.3944 16.7948 11.3995 16.3708 10.9882L13.0465 7.76283Z" fill="currentColor"/>
<path d="M12.8108 14.4324C12.8108 13.8354 13.2948 13.3513 13.8919 13.3513H20.3784C20.9755 13.3513 21.4595 13.8354 21.4595 14.4324V20.919C21.4595 21.516 20.9755 22 20.3784 22H13.8919C13.2948 22 12.8108 21.516 12.8108 20.919V14.4324Z" fill="currentColor"/>
</svg>
