<svg width="24" height="24" viewBox="0 0 24 24" fill="none" xmlns="http://www.w3.org/2000/svg">
<path d="M4.95587 2.19793C4.69393 1.93405 4.26934 1.93405 4.00741 2.19793L2.19642 4.02229C1.93448 4.28616 1.93448 4.71388 2.19642 4.97775L4.00741 6.80212C4.26934 7.06599 4.69393 7.06599 4.95587 6.80212C5.2178 6.53824 5.2178 6.11052 4.95587 5.84665L4.28985 5.17571H12.3292C12.6997 5.17571 13 4.87319 13 4.50002C13 4.12685 12.6997 3.82433 12.3292 3.82433H4.28985L4.95587 3.15339C5.2178 2.88952 5.2178 2.4618 4.95587 2.19793Z" fill="currentColor"/>
<path d="M19.0441 17.1979C19.306 16.9341 19.7306 16.9341 19.9925 17.1979L21.8035 19.0223C22.0655 19.2862 22.0655 19.7139 21.8035 19.9778L19.9925 21.8021C19.7306 22.066 19.306 22.066 19.0441 21.8021C18.7821 21.5382 18.7821 21.1105 19.0441 20.8466L19.7101 20.1757H11.6707C11.3003 20.1757 11 19.8732 11 19.5C11 19.1268 11.3003 18.8243 11.6707 18.8243H19.7101L19.0441 18.1534C18.7821 17.8895 18.7821 17.4618 19.0441 17.1979Z" fill="currentColor"/>
<path d="M18.8662 17.0215C19.2258 16.6592 19.8102 16.6593 20.1699 17.0215L21.9814 18.8457C22.3401 19.2071 22.3401 19.793 21.9814 20.1543L20.1699 21.9785C19.8102 22.3407 19.2258 22.3408 18.8662 21.9785C18.5077 21.6173 18.5079 21.0323 18.8662 20.6709L19.1093 20.4258H11.6709C11.1606 20.4258 10.75 20.0095 10.75 19.5C10.75 18.9905 11.1606 18.5742 11.6709 18.5742H19.1093L18.8662 18.3291C18.5079 17.9678 18.5077 17.3827 18.8662 17.0215ZM12.75 4.50002C12.75 4.26318 12.5597 4.07424 12.3291 4.07424H4.29001C4.18906 4.07424 4.09834 4.01314 4.05954 3.91994C4.02091 3.82689 4.04138 3.72004 4.11227 3.64846L4.77829 2.97756C4.94346 2.81117 4.94346 2.54044 4.77829 2.37404C4.61412 2.20875 4.34867 2.2087 4.18454 2.37404L2.37399 4.19826C2.20882 4.36466 2.20882 4.63539 2.37399 4.80178L4.18454 6.626C4.34867 6.79134 4.61412 6.79129 4.77829 6.626C4.94346 6.4596 4.94346 6.18887 4.77829 6.02248L4.11227 5.35158C4.04138 5.28 4.02091 5.17315 4.05954 5.0801C4.09834 4.98691 4.18906 4.9258 4.29001 4.9258H12.3291C12.5597 4.9258 12.75 4.73686 12.75 4.50002ZM11.25 19.5C11.25 19.7369 11.4402 19.9258 11.6709 19.9258H19.7099C19.8109 19.9258 19.9016 19.9869 19.9404 20.0801C19.979 20.1731 19.9586 20.28 19.8877 20.3516L19.2216 21.0225C19.0565 21.1889 19.0565 21.4596 19.2216 21.626C19.3858 21.7913 19.6513 21.7913 19.8154 21.626L21.6259 19.8018C21.7911 19.6354 21.7911 19.3647 21.6259 19.1983L19.8154 17.374C19.6513 17.2087 19.3858 17.2088 19.2216 17.374C19.0565 17.5404 19.0565 17.8112 19.2216 17.9776L19.8877 18.6485C19.9586 18.72 19.979 18.8269 19.9404 18.9199C19.9016 19.0131 19.8109 19.0742 19.7099 19.0742H11.6709C11.4402 19.0742 11.25 19.2632 11.25 19.5ZM13.25 4.50002C13.25 5.00953 12.8393 5.4258 12.3291 5.4258H4.89059L5.13376 5.67092C5.492 6.03228 5.49223 6.61732 5.13376 6.97854C4.7741 7.34085 4.18978 7.34073 3.83005 6.97854L2.01852 5.15432C1.65984 4.79297 1.65984 4.20707 2.01852 3.84572L3.83005 2.02151C4.18978 1.65931 4.7741 1.65919 5.13376 2.02151C5.49224 2.38272 5.49201 2.96776 5.13376 3.32912L4.89059 3.57424H12.3291C12.8393 3.57424 13.25 3.99052 13.25 4.50002Z" fill="currentColor"/>
<path d="M13.0732 12.4737C13.3913 12.4737 13.6658 12.7593 13.666 13.124C13.666 13.489 13.3914 13.7744 13.0732 13.7744H11.4424V12.4737H13.0732Z" fill="currentColor"/>
<path d="M12.7275 10.2237C13.0454 10.2238 13.3191 10.5094 13.3193 10.874C13.3193 11.2389 13.0455 11.5243 12.7275 11.5244H11.4424V10.2237H12.7275Z" fill="currentColor"/>
<path fill-rule="evenodd" clip-rule="evenodd" d="M12 6.99904C14.7613 6.99904 16.9999 9.2377 17 11.999C17 14.7605 14.7614 16.999 12 16.999C9.23854 16.999 6.99997 14.7605 6.99997 11.999C7.00006 9.2377 9.2386 6.99904 12 6.99904ZM12.7275 8.52444C12.4748 8.52459 12.2814 8.7455 12.2812 8.99904V9.27444H11.789V8.99904C11.7888 8.74546 11.5955 8.52452 11.3427 8.52444C11.09 8.52459 10.8966 8.7455 10.8965 8.99904V9.27444H10.3037C10.0512 9.27485 9.85855 9.49565 9.85837 9.74904C9.85837 10.0026 10.051 10.2232 10.3037 10.2237H10.5507V13.7744H10.3037C10.0512 13.7749 9.85855 13.9956 9.85837 14.249C9.85837 14.5026 10.051 14.7232 10.3037 14.7237H10.8965V14.999C10.8965 15.2527 11.0899 15.4735 11.3427 15.4737C11.5957 15.4736 11.789 15.2528 11.789 14.999V14.7237H12.2812V14.999C12.2812 15.2527 12.4746 15.4735 12.7275 15.4737C12.9804 15.4735 13.1738 15.2527 13.1738 14.999V14.7178C13.9534 14.662 14.5576 13.9645 14.5576 13.124C14.5575 12.5863 14.3067 12.1071 13.9238 11.8164C14.1052 11.5524 14.2119 11.226 14.2119 10.874C14.2117 10.1643 13.781 9.5539 13.1738 9.34963V8.99904C13.1736 8.74551 12.9802 8.52461 12.7275 8.52444Z" fill="currentColor"/>
</svg>
