<svg width="24" height="24" viewBox="0 0 24 24" fill="none" xmlns="http://www.w3.org/2000/svg">
<path d="M18.4536 18.01C18.4536 18.7399 18.0534 19.4197 17.4136 19.7698L12.4136 22.5003C11.8137 22.8302 11.0936 22.8301 10.4937 22.5003L5.49366 19.7698C4.85366 19.4198 4.45362 18.74 4.45362 18.01V15.2004L10.4937 18.5003C11.0936 18.8301 11.8137 18.8302 12.4136 18.5003L18.4536 15.2004V18.01Z" fill="currentColor"/>
<path d="M10.4937 5.54029C10.9917 5.27472 11.572 5.23016 12.0981 5.40553C12.2249 6.13812 12.6976 6.81613 13.5181 7.1399L15.1978 7.80104L15.8599 9.4817C16.5961 11.3474 19.1614 11.4186 20.0396 9.69752L21.9331 10.7297C22.2531 10.9097 22.4536 11.2406 22.4536 11.6106V18.0198C22.4536 18.5697 22.0035 19.0197 21.4536 19.0198C20.9036 19.0198 20.4536 18.5698 20.4536 18.0198V12.1106L12.4136 16.5003C11.8137 16.8302 11.0936 16.8301 10.4937 16.5003L2.06299 11.9006C1.37318 11.5206 1.37324 10.52 2.06299 10.1399L10.4937 5.54029Z" fill="currentColor"/>
<path d="M17.5501 1.30606C17.7111 0.897981 18.2886 0.897981 18.4496 1.30606L19.2901 3.43737C19.3393 3.56196 19.4379 3.66058 19.5625 3.70971L21.6938 4.55029C22.1019 4.71124 22.1019 5.28876 21.6938 5.44971L19.5625 6.29028C19.4379 6.33942 19.3393 6.43804 19.2901 6.56263L18.4496 8.69394C18.2886 9.10202 17.7111 9.10202 17.5501 8.69394L16.7096 6.56263C16.6604 6.43804 16.5618 6.33942 16.4372 6.29028L14.3059 5.44971C13.8978 5.28876 13.8978 4.71124 14.3059 4.55029L16.4372 3.70971C16.5618 3.66058 16.6604 3.56196 16.7096 3.43737L17.5501 1.30606Z" fill="currentColor"/>
</svg>
