<svg width="24" height="24" viewBox="0 0 24 24" fill="none" xmlns="http://www.w3.org/2000/svg">
<path d="M7.80038 14.948C7.59338 14.948 7.45388 14.9678 7.38188 14.9876V16.2834C7.46738 16.3032 7.57425 16.3087 7.72162 16.3087C8.2605 16.3087 8.59237 16.0425 8.59237 15.5926C8.59237 15.19 8.30663 14.948 7.80038 14.948ZM11.7233 14.9612C11.4983 14.9612 11.352 14.981 11.2654 15.0008V17.8718C11.352 17.8916 11.4915 17.8916 11.6175 17.8916C12.5366 17.8982 13.1351 17.4032 13.1351 16.356C13.1419 15.443 12.5963 14.9612 11.7233 14.9612Z" fill="currentColor"/>
<path d="M14.25 1H5.25C4.65326 1 4.08097 1.23178 3.65901 1.64437C3.23705 2.05695 3 2.61652 3 3.2V20.8C3 21.3835 3.23705 21.9431 3.65901 22.3556C4.08097 22.7682 4.65326 23 5.25 23H18.75C19.3467 23 19.919 22.7682 20.341 22.3556C20.7629 21.9431 21 21.3835 21 20.8V7.6L14.25 1ZM9.18525 16.609C8.83763 16.928 8.32463 17.071 7.72725 17.071C7.61142 17.0722 7.49564 17.0656 7.38075 17.0512V18.6198H6.375V14.2902C6.82889 14.224 7.28751 14.1938 7.74638 14.2C8.373 14.2 8.8185 14.3166 9.11888 14.5509C9.40463 14.7731 9.59812 15.1372 9.59812 15.5662C9.597 15.9974 9.45075 16.3615 9.18525 16.609ZM13.4681 18.0995C12.9956 18.4834 12.2768 18.666 11.3981 18.666C10.8716 18.666 10.4993 18.633 10.2461 18.6V14.2913C10.7002 14.2265 11.1587 14.196 11.6175 14.2C12.4691 14.2 13.0226 14.3496 13.4546 14.6686C13.9215 15.0074 14.214 15.5475 14.214 16.323C14.214 17.1623 13.9001 17.742 13.4681 18.0995ZM17.625 15.047H15.9015V16.0491H17.5125V16.8565H15.9015V18.6209H14.8823V14.233H17.625V15.047ZM13.125 8.7V3.2L18.75 8.7H13.125Z" fill="currentColor"/>
</svg>
