<svg width="24" height="24" viewBox="0 0 24 24" fill="none" xmlns="http://www.w3.org/2000/svg">
<path d="M4.22222 22C3.61111 22 3.08815 21.7826 2.65333 21.3478C2.21852 20.913 2.00074 20.3896 2 19.7778V3.11112C2 2.7963 2.10667 2.5326 2.32 2.32001C2.53333 2.10742 2.79704 2.00075 3.11111 2.00001C3.42518 1.99927 3.68926 2.10593 3.90333 2.32001C4.11741 2.53408 4.2237 2.79779 4.22222 3.11112V19.7778H20.8889C21.2037 19.7778 21.4678 19.8844 21.6811 20.0978C21.8944 20.3111 22.0007 20.5748 22 20.8889C21.9993 21.203 21.8926 21.467 21.68 21.6811C21.4674 21.8952 21.2037 22.0015 20.8889 22H4.22222ZM7.55555 17.5556C7.24074 17.5556 6.97704 17.4489 6.76444 17.2356C6.55185 17.0222 6.44518 16.7585 6.44444 16.4444V9.77778C6.44444 9.46297 6.55111 9.19926 6.76444 8.98667C6.97778 8.77408 7.24148 8.66741 7.55555 8.66667H8.66666C8.98148 8.66667 9.24555 8.77334 9.45889 8.98667C9.67222 9.20001 9.77852 9.46371 9.77777 9.77778V16.4444C9.77777 16.7593 9.67111 17.0233 9.45777 17.2367C9.24444 17.45 8.98074 17.5563 8.66666 17.5556H7.55555ZM13.1111 17.5556C12.7963 17.5556 12.5326 17.4489 12.32 17.2356C12.1074 17.0222 12.0007 16.7585 12 16.4444V4.22223C12 3.90741 12.1067 3.64371 12.32 3.43112C12.5333 3.21853 12.797 3.11186 13.1111 3.11112H14.2222C14.537 3.11112 14.8011 3.21779 15.0144 3.43112C15.2278 3.64445 15.3341 3.90815 15.3333 4.22223V16.4444C15.3333 16.7593 15.2267 17.0233 15.0133 17.2367C14.8 17.45 14.5363 17.5563 14.2222 17.5556H13.1111ZM18.6667 17.5556C18.3518 17.5556 18.0881 17.4489 17.8755 17.2356C17.663 17.0222 17.5563 16.7585 17.5555 16.4444V14.2222C17.5555 13.9074 17.6622 13.6437 17.8755 13.4311C18.0889 13.2185 18.3526 13.1119 18.6667 13.1111H19.7778C20.0926 13.1111 20.3567 13.2178 20.57 13.4311C20.7833 13.6444 20.8896 13.9082 20.8889 14.2222V16.4444C20.8889 16.7593 20.7822 17.0233 20.5689 17.2367C20.3555 17.45 20.0918 17.5563 19.7778 17.5556H18.6667Z" fill="currentColor"/>
</svg>
