<svg width="24" height="24" viewBox="0 0 24 24" fill="none" xmlns="http://www.w3.org/2000/svg">
<path d="M6.44404 3.68502C6.96854 3.3346 7.52502 3.0346 8.10604 2.78902C9.50904 2.19602 10.21 1.89902 11.106 2.49302C12 3.08602 12 4.05702 12 6.00002V8.00002C12 9.88602 12 10.828 12.586 11.414C13.172 12 14.114 12 16 12H18C19.942 12 20.914 12 21.507 12.895C22.1 13.79 21.804 14.491 21.211 15.895C20.3149 18.0144 18.7152 19.7598 16.6818 20.837C14.6485 21.9141 12.3058 22.2571 10.049 21.808C8.1091 21.4223 6.32712 20.4699 4.92847 19.0714C3.52982 17.6728 2.57732 15.8909 2.19143 13.951C1.80555 12.0111 2.00361 10.0003 2.76057 8.17296C3.51754 6.34562 4.7994 4.7838 6.44404 3.68502Z" fill="currentColor"/>
<path fill-rule="evenodd" clip-rule="evenodd" d="M13.774 2.12802C13.7985 2.03261 13.8416 1.94296 13.9007 1.86419C13.9598 1.78541 14.0339 1.71906 14.1187 1.66891C14.2035 1.61877 14.2973 1.58582 14.3948 1.57194C14.4923 1.55806 14.5916 1.56352 14.687 1.58802C16.5466 2.06974 18.2434 3.04004 19.6017 4.39833C20.96 5.75663 21.9303 7.45348 22.412 9.31302C22.4366 9.40843 22.4421 9.50774 22.4283 9.60528C22.4145 9.70282 22.3816 9.79668 22.3315 9.88151C22.2814 9.96633 22.2151 10.0405 22.1363 10.0997C22.0576 10.1589 21.968 10.202 21.8725 10.2265C21.7771 10.2511 21.6778 10.2566 21.5803 10.2428C21.4828 10.229 21.3889 10.1961 21.3041 10.146C21.2192 10.0959 21.1451 10.0296 21.0859 9.95081C21.0267 9.87206 20.9836 9.78243 20.959 9.68702C20.5442 8.08742 19.7093 6.62779 18.5408 5.45929C17.3723 4.29078 15.9126 3.45587 14.313 3.04102C14.2176 3.01654 14.128 2.9735 14.0492 2.91436C13.9704 2.85523 13.9041 2.78115 13.8539 2.69637C13.8038 2.61159 13.7708 2.51776 13.757 2.42024C13.7431 2.32272 13.7485 2.22343 13.773 2.12802" fill="currentColor"/>
</svg>
