<svg width="24" height="24" viewBox="0 0 24 24" fill="none" xmlns="http://www.w3.org/2000/svg">
<path fill-rule="evenodd" clip-rule="evenodd" d="M9.14286 2C8.95342 2 8.77174 2.07525 8.63778 2.20921C8.50383 2.34316 8.42857 2.52485 8.42857 2.71429V8.42857H2.71429C2.52485 8.42857 2.34316 8.50383 2.20921 8.63778C2.07525 8.77174 2 8.95342 2 9.14286V14.8571C2 15.0466 2.07525 15.2283 2.20921 15.3622C2.34316 15.4962 2.52485 15.5714 2.71429 15.5714H8.42857V21.2857C8.42857 21.4752 8.50383 21.6568 8.63778 21.7908C8.77174 21.9247 8.95342 22 9.14286 22H14.8571C15.0466 22 15.2283 21.9247 15.3622 21.7908C15.4962 21.6568 15.5714 21.4752 15.5714 21.2857V15.5714H21.2857C21.4752 15.5714 21.6568 15.4962 21.7908 15.3622C21.9247 15.2283 22 15.0466 22 14.8571V9.14286C22 8.95342 21.9247 8.77174 21.7908 8.63778C21.6568 8.50383 21.4752 8.42857 21.2857 8.42857H15.5714V2.71429C15.5714 2.52485 15.4962 2.34316 15.3622 2.20921C15.2283 2.07525 15.0466 2 14.8571 2H9.14286Z" fill="currentColor"/>
</svg>
