<svg width="24" height="24" viewBox="0 0 24 24" fill="none" xmlns="http://www.w3.org/2000/svg">
<path d="M12 11C13.1 11 14.0417 10.6083 14.825 9.825C15.6083 9.04167 16 8.1 16 7V4H8V7C8 8.1 8.39167 9.04167 9.175 9.825C9.95834 10.6083 10.9 11 12 11ZM5 22C4.71667 22 4.47934 21.904 4.288 21.712C4.09667 21.52 4.00067 21.2827 4 21C3.99934 20.7173 4.09534 20.48 4.288 20.288C4.48067 20.096 4.718 20 5 20H6V17C6 15.9833 6.23767 15.029 6.713 14.137C7.18834 13.245 7.85067 12.5327 8.7 12C7.85 11.4667 7.18767 10.7543 6.713 9.863C6.23834 8.97167 6.00067 8.01733 6 7V4H5C4.71667 4 4.47934 3.904 4.288 3.712C4.09667 3.52 4.00067 3.28267 4 3C3.99934 2.71733 4.09534 2.48 4.288 2.288C4.48067 2.096 4.718 2 5 2H19C19.2833 2 19.521 2.096 19.713 2.288C19.905 2.48 20.0007 2.71733 20 3C19.9993 3.28267 19.9033 3.52033 19.712 3.713C19.5207 3.90567 19.2833 4.00133 19 4H18V7C18 8.01667 17.7627 8.971 17.288 9.863C16.8133 10.755 16.1507 11.4673 15.3 12C16.15 12.5333 16.8127 13.246 17.288 14.138C17.7633 15.03 18.0007 15.984 18 17V20H19C19.2833 20 19.521 20.096 19.713 20.288C19.905 20.48 20.0007 20.7173 20 21C19.9993 21.2827 19.9033 21.5203 19.712 21.713C19.5207 21.9057 19.2833 22.0013 19 22H5Z" fill="currentColor"/>
</svg>
