<svg width="24" height="24" viewBox="0 0 24 24" fill="none" xmlns="http://www.w3.org/2000/svg">
<path d="M13.7646 15.1963C13.8535 15.1963 13.9387 15.2316 14.002 15.2939L20.2969 21.4902C19.7472 21.8225 19.1162 22.0002 18.4707 22H9.05859C8.41264 22.0001 7.78135 21.822 7.23145 21.4893L13.5273 15.2939C13.5906 15.2316 13.6758 15.1963 13.7646 15.1963ZM18.4707 5.53027C19.4067 5.5303 20.304 5.90263 20.9658 6.56445C21.6277 7.22631 22 8.12357 22 9.05957V18.4707C22.0013 19.1207 21.8211 19.7561 21.4834 20.3076L15.1777 14.0977C14.8009 13.7266 14.2934 13.5187 13.7646 13.5186C13.2357 13.5186 12.7275 13.7265 12.3506 14.0977L6.04395 20.3066C5.71737 19.7713 5.5293 19.1438 5.5293 18.4707V16.4072C5.54338 16.3955 5.55825 16.3847 5.57227 16.373C5.65635 16.3029 5.75987 16.2157 5.8252 16.1611C5.86127 16.131 5.89263 16.1057 5.91699 16.0859C5.9292 16.0761 5.93966 16.0674 5.94727 16.0615C5.95265 16.0574 5.95703 16.0547 5.95703 16.0547L5.96289 16.0488C6.26239 15.832 6.47965 15.5463 6.61426 15.21L6.61816 15.2021L6.62012 15.1943L6.92578 14.25L6.92676 14.2471C6.94447 14.1898 6.9783 14.1382 7.02246 14.0977L7.03027 14.0898C7.07282 14.0474 7.13381 14.0082 7.19531 13.9844L8.08496 13.6924L8.09375 13.6895C8.45299 13.5564 8.75359 13.3391 8.97461 13.0371L8.97559 13.0361C9.19607 12.7315 9.30566 12.3725 9.30566 12.0049C9.30566 11.973 9.30472 11.9411 9.30288 11.9092C9.28956 11.6776 9.40011 11.4483 9.58887 11.3135L9.59766 11.3066C9.94963 11.0315 10.1679 10.7234 10.292 10.3828L10.2939 10.375L10.7148 9.09668C10.807 8.86185 10.8933 8.74096 10.9912 8.6416C11.1799 8.47449 11.315 8.40049 11.4521 8.35352L12.7031 7.94141C13.1101 7.80563 13.4349 7.54583 13.6631 7.22363C13.8929 6.8991 14.0146 6.51838 14.0146 6.11426C14.0146 5.82063 14.2236 5.53027 14.5172 5.53027H18.4707ZM4.95996 9.05957C5.0336 9.05957 5.10595 9.08241 5.16602 9.125C5.22581 9.16749 5.27057 9.22769 5.29492 9.29688L5.58691 10.1963C5.67639 10.4679 5.82763 10.7152 6.02832 10.9189C6.22911 11.1228 6.47472 11.2775 6.74512 11.3711L7.64453 11.6631C7.71402 11.6874 7.77479 11.7329 7.81738 11.793C7.8598 11.8529 7.88278 11.9246 7.88281 11.998C7.88281 12.0717 7.85998 12.144 7.81738 12.2041C7.77479 12.2641 7.71398 12.3087 7.64453 12.333L6.74512 12.626C6.47085 12.7174 6.22181 12.8725 6.01758 13.0771C5.81347 13.2817 5.65929 13.5304 5.56836 13.8047L5.27637 14.7041C5.25199 14.7735 5.20649 14.8334 5.14648 14.876C5.08647 14.9185 5.01496 14.9414 4.94141 14.9414C4.86777 14.9414 4.79542 14.9186 4.73535 14.876C4.67556 14.8335 4.63077 14.7733 4.60645 14.7041L4.31348 13.8047C4.22223 13.5312 4.06807 13.283 3.86426 13.0791C3.66027 12.8751 3.41136 12.7211 3.1377 12.6299L2.2373 12.3379C2.16803 12.3135 2.10792 12.2679 2.06543 12.208C2.02297 12.148 2 12.0764 2 12.0029C2 11.9294 2.02298 11.8579 2.06543 11.7979C2.10792 11.7379 2.16803 11.6924 2.2373 11.668L2.25586 11.6631L3.15625 11.3711C3.42964 11.2797 3.67808 11.1258 3.88184 10.9219C4.08557 10.718 4.2399 10.4697 4.33105 10.1963L4.625 9.29688C4.64939 9.22753 4.69492 9.16752 4.75488 9.125C4.81488 9.08251 4.88644 9.0596 4.95996 9.05957ZM16.7061 9.35352C16.3161 9.35352 15.9418 9.50845 15.666 9.78418C15.3902 10.06 15.2354 10.4342 15.2354 10.8242C15.2354 11.2142 15.3902 11.5885 15.666 11.8643C15.9418 12.14 16.3161 12.2949 16.7061 12.2949C17.096 12.2949 17.4703 12.14 17.7461 11.8643C18.0219 11.5885 18.1767 11.2142 18.1768 10.8242C18.1768 10.4343 18.0218 10.0599 17.7461 9.78418C17.4703 9.50844 17.096 9.35355 16.7061 9.35352ZM8.49512 2C8.59831 2.00007 8.69908 2.03202 8.7832 2.0918C8.86741 2.15165 8.93088 2.23642 8.96484 2.33398L9.375 3.59277C9.49948 3.97335 9.71108 4.3203 9.99219 4.60547C10.2732 4.89046 10.6166 5.10641 10.9951 5.23633L12.2568 5.64551C12.3538 5.67969 12.4376 5.74332 12.4971 5.82715C12.5566 5.91122 12.5889 6.01221 12.5889 6.11523C12.5888 6.21818 12.5566 6.31833 12.4971 6.40234C12.4376 6.4863 12.3538 6.54974 12.2568 6.58398L10.9951 6.99414C10.6111 7.12134 10.2623 7.33665 9.97656 7.62305C9.69072 7.9097 9.47575 8.25988 9.34961 8.64453L8.94043 9.90332C8.90621 10.0004 8.84185 10.084 8.75781 10.1436C8.67377 10.203 8.57367 10.2353 8.4707 10.2354C8.36768 10.2354 8.2667 10.2031 8.18262 10.1436C8.09882 10.0841 8.03513 10.0002 8.00098 9.90332L7.5918 8.64453C7.46471 8.26118 7.24966 7.91232 6.96387 7.62695C6.67819 7.34176 6.32963 7.12749 5.94629 7.00098L4.68457 6.5918C4.58744 6.55758 4.50385 6.49322 4.44434 6.40918C4.38485 6.32513 4.35254 6.22504 4.35254 6.12207C4.35254 6.0191 4.38485 5.91901 4.44434 5.83496C4.50385 5.75092 4.58743 5.68656 4.68457 5.65234L4.71094 5.64551L5.97168 5.23633C6.35501 5.10964 6.70368 4.89474 6.98926 4.60938C7.27474 4.32406 7.48927 3.97589 7.61621 3.59277L8.02441 2.33398C8.05835 2.23646 8.12192 2.15165 8.20605 2.0918C8.29028 2.03193 8.39179 2 8.49512 2Z" fill="currentColor"/>
</svg>
