<svg width="24" height="24" viewBox="0 0 24 24" fill="none" xmlns="http://www.w3.org/2000/svg">
<path d="M3 19.8437V9.71875C3 9.3625 3.07987 9.025 3.23962 8.70625C3.39937 8.3875 3.6195 8.125 3.9 7.91875L10.65 2.85625C11.0437 2.55625 11.4937 2.40625 12 2.40625C12.5062 2.40625 12.9562 2.55625 13.35 2.85625L20.1 7.91875C20.3812 8.125 20.6017 8.3875 20.7615 8.70625C20.9212 9.025 21.0007 9.3625 21 9.71875V19.8437C21 20.4625 20.7795 20.9924 20.3385 21.4334C19.8975 21.8744 19.368 22.0945 18.75 22.0937H15.375C15.0562 22.0937 14.7892 21.9857 14.574 21.7697C14.3587 21.5537 14.2507 21.2867 14.25 20.9687V15.3437C14.25 15.025 14.142 14.758 13.926 14.5427C13.71 14.3275 13.443 14.2195 13.125 14.2187H10.875C10.5562 14.2187 10.2892 14.3267 10.074 14.5427C9.85875 14.7587 9.75075 15.0257 9.75 15.3437V20.9687C9.75 21.2875 9.642 21.5549 9.426 21.7709C9.21 21.9869 8.943 22.0945 8.625 22.0937H5.25C4.63125 22.0937 4.10175 21.8736 3.6615 21.4334C3.22125 20.9931 3.00075 20.4632 3 19.8437Z" fill="currentColor"/>
</svg>
