<svg width="24" height="24" viewBox="0 0 24 24" fill="none" xmlns="http://www.w3.org/2000/svg">
<path d="M10.6748 4C10.3794 4.62178 10.1733 5.29375 10.0723 6H6C4.9 6 4 6.9 4 8V8.5498C4.58998 8.20983 5.27003 8 6 8H10.0723C10.1733 8.70625 10.3794 9.37822 10.6748 10H6C5.16005 10 4.45042 10.5201 4.15039 11.25L15.2598 13.9697C15.4777 14.026 15.7048 14.0011 15.9043 13.9131C16.2614 13.9692 16.6272 14 17 14C18.9591 14 20.7294 13.1945 22 11.8975V16C22 18.21 20.21 20 18 20H6C3.79 20 2 18.21 2 16V8C2 5.79 3.79 4 6 4H10.6748Z" fill="currentColor"/>
<path d="M16.995 2C14.235 2 12 4.24 12 7C12 9.76 14.235 12 16.995 12C19.76 12 22 9.76 22 7C22 4.24 19.76 2 16.995 2ZM17 11C14.79 11 13 9.21 13 7C13 4.79 14.79 3 17 3C19.21 3 21 4.79 21 7C21 9.21 19.21 11 17 11ZM16.89 4.5H16.86C16.66 4.5 16.5 4.66 16.5 4.86V7.22C16.5 7.395 16.59 7.56 16.745 7.65L18.82 8.895C18.99 8.995 19.21 8.945 19.31 8.775C19.415 8.605 19.36 8.38 19.185 8.28L17.25 7.13V4.86C17.25 4.66 17.09 4.5 16.89 4.5Z" fill="currentColor"/>
<path d="M21.75 7C21.75 4.37827 19.6222 2.25006 16.9951 2.25C14.3735 2.25 12.25 4.37775 12.25 7C12.25 9.62225 14.3735 11.75 16.9951 11.75C19.6222 11.7499 21.75 9.62173 21.75 7ZM20.75 7C20.75 4.92807 19.0719 3.25 17 3.25C14.9281 3.25 13.25 4.92807 13.25 7C13.25 9.07193 14.9281 10.75 17 10.75C19.0719 10.75 20.75 9.07193 20.75 7ZM17 4.86035C17 4.79842 16.9516 4.75 16.8896 4.75H16.8604C16.7984 4.75 16.75 4.79842 16.75 4.86035V7.21973C16.75 7.30918 16.7956 7.39011 16.8701 7.43359L16.874 7.43555L18.9463 8.67969L18.9912 8.69531C19.0349 8.70146 19.0756 8.68096 19.0947 8.64844L19.0977 8.64355C19.1292 8.59218 19.1109 8.52587 19.0605 8.49707L19.0576 8.49512L17.1221 7.34473L17 7.27246V4.86035ZM21.25 7C21.25 9.34807 19.3481 11.25 17 11.25C14.6519 11.25 12.75 9.34807 12.75 7C12.75 4.65193 14.6519 2.75 17 2.75C19.3481 2.75 21.25 4.65193 21.25 7ZM22.25 7C22.25 9.8982 19.898 12.2499 16.9951 12.25C14.0967 12.25 11.75 9.89775 11.75 7C11.75 4.10225 14.0967 1.75 16.9951 1.75C19.898 1.75006 22.25 4.10181 22.25 7ZM17.5 6.9873L19.3076 8.0625C19.6054 8.23265 19.6984 8.61239 19.5244 8.90039L19.5254 8.90137L19.5234 8.90332L19.5225 8.90625L19.5215 8.90527C19.346 9.19818 18.9733 9.27502 18.6934 9.11035L18.6914 9.10938L16.6162 7.86426C16.3833 7.72723 16.25 7.47874 16.25 7.21973V4.86035C16.25 4.52228 16.5223 4.25 16.8604 4.25H16.8896C17.2277 4.25 17.5 4.52228 17.5 4.86035V6.9873Z" fill="currentColor"/>
</svg>
