<svg width="24" height="24" viewBox="0 0 24 24" fill="none" xmlns="http://www.w3.org/2000/svg">
<path d="M16.7412 13.3662C17.2294 12.8781 18.0206 12.8781 18.5088 13.3662L21.8838 16.7412C22.3719 17.2294 22.3719 18.0206 21.8838 18.5088L18.5088 21.8838C18.0206 22.3719 17.2294 22.3719 16.7412 21.8838C16.2531 21.3956 16.2531 20.6044 16.7412 20.1162L17.9824 18.875H3C2.30964 18.875 1.75 18.3154 1.75 17.625C1.75 16.9346 2.30964 16.375 3 16.375H17.9824L16.7412 15.1338C16.2531 14.6456 16.2531 13.8544 16.7412 13.3662ZM5.49121 2.11621C5.97937 1.62806 6.77063 1.62806 7.25879 2.11621C7.74694 2.60437 7.74694 3.39563 7.25879 3.88379L6.01758 5.125H21C21.6904 5.125 22.25 5.68464 22.25 6.375C22.25 7.06536 21.6904 7.625 21 7.625H6.01758L7.25879 8.86621C7.74694 9.35437 7.74694 10.1456 7.25879 10.6338C6.77063 11.1219 5.97937 11.1219 5.49121 10.6338L2.11621 7.25879C1.62806 6.77063 1.62806 5.97937 2.11621 5.49121L5.49121 2.11621Z" fill="currentColor"/>
</svg>
