<svg width="24" height="14" viewBox="0 0 24 14" fill="none" xmlns="http://www.w3.org/2000/svg">
<g clip-path="url(#clip0_532_67)">
<path d="M0.00048175 0.42862L2.52869 2.71439L4.66769 13.9997H2.57273L0.00048175 0.42862Z" fill="#046EFF"/>
<path d="M0 0.426018L0.643976 3.81877L12.0002 13.9985L12.0002 11.1738L0 0.426018Z" fill="#046EFF"/>
<path d="M12.0002 0V3.58395L9.62726 6.97601L8.06576 5.57728L12.0002 0Z" fill="#046EFF"/>
<path d="M5.04754 9.84715L6.60068 11.2346L4.66649 13.9996L3.10499 12.6008L5.04754 9.84715Z" fill="#046EFF"/>
<path d="M23.9995 0.428958L21.4713 2.71473L19.3323 14H21.4273L23.9995 0.428958Z" fill="#046EFF"/>
<path d="M24 0.426353L23.356 3.81911L11.9998 13.9988L11.9998 11.1741L24 0.426353Z" fill="#046EFF"/>
<path d="M11.999 0L11.999 3.58395L14.3719 6.97601L15.9334 5.57728L11.999 0Z" fill="#046EFF"/>
<path d="M18.9519 9.84715L17.3988 11.2346L19.333 13.9996L20.8945 12.6008L18.9519 9.84715Z" fill="#046EFF"/>
</g>
<defs>
<clipPath id="clip0_532_67">
<rect width="24" height="14" fill="white"/>
</clipPath>
</defs>
</svg>
